<svg width="21" height="33" viewBox="0 0 21 33" fill="none"
    xmlns="http://www.w3.org/2000/svg">
    <path d="M16.6875 2.0625C17.2345 2.0625 17.7591 2.2798 18.1459 2.66659C18.5327 3.05339 18.75 3.57799 18.75 4.125V28.875C18.75 29.422 18.5327 29.9466 18.1459 30.3334C17.7591 30.7202 17.2345 30.9375 16.6875 30.9375H4.3125C3.76549 30.9375 3.24089 30.7202 2.85409 30.3334C2.4673 29.9466 2.25 29.422 2.25 28.875V4.125C2.25 3.57799 2.4673 3.05339 2.85409 2.66659C3.24089 2.2798 3.76549 2.0625 4.3125 2.0625H16.6875ZM4.3125 0C3.21848 0 2.16927 0.434597 1.39568 1.20818C0.622097 1.98177 0.1875 3.03098 0.1875 4.125V28.875C0.1875 29.969 0.622097 31.0182 1.39568 31.7918C2.16927 32.5654 3.21848 33 4.3125 33H16.6875C17.7815 33 18.8307 32.5654 19.6043 31.7918C20.3779 31.0182 20.8125 29.969 20.8125 28.875V4.125C20.8125 3.03098 20.3779 1.98177 19.6043 1.20818C18.8307 0.434597 17.7815 0 16.6875 0L4.3125 0Z" fill="#2A5963"/>
    <path d="M10.5 28.875C11.047 28.875 11.5716 28.6577 11.9584 28.2709C12.3452 27.8841 12.5625 27.3595 12.5625 26.8125C12.5625 26.2655 12.3452 25.7409 11.9584 25.3541C11.5716 24.9673 11.047 24.75 10.5 24.75C9.95299 24.75 9.42839 24.9673 9.04159 25.3541C8.6548 25.7409 8.4375 26.2655 8.4375 26.8125C8.4375 27.3595 8.6548 27.8841 9.04159 28.2709C9.42839 28.6577 9.95299 28.875 10.5 28.875Z" fill="#2A5963"/>
</svg>
