<svg width="48" height="48" viewBox="0 0 48 48" fill="none"
    xmlns="http://www.w3.org/2000/svg">
    <g clip-path="url(#clip0_252_965)">
        <path d="M1.02442 23.7127C1.0233 27.7457 2.0853 31.6835 4.10467 35.1544L0.831299 47.0134L13.0623 43.8313C16.4452 45.6586 20.2356 46.6161 24.0873 46.6164H24.0974C36.8127 46.6164 47.1633 36.3498 47.1687 23.7308C47.1712 17.616 44.7734 11.866 40.417 7.54009C36.0614 3.21451 30.2686 0.831068 24.0965 0.828278C11.3797 0.828278 1.02986 11.0943 1.02461 23.7127" fill="url(#paint0_linear_252_965)"/>
        <path d="M0.200625 23.7053C0.199313 27.8834 1.29937 31.962 3.39075 35.5572L0 47.8413L12.6696 44.5451C16.1604 46.4337 20.0908 47.4294 24.0902 47.4309H24.1005C37.272 47.4309 47.9944 36.795 48 23.7243C48.0023 17.3898 45.5182 11.4331 41.0062 6.95219C36.4937 2.47181 30.4937 0.00260465 24.1005 0C10.9267 0 0.205875 10.6344 0.200625 23.7053ZM7.74563 34.9381L7.27256 34.1929C5.28394 31.0554 4.23431 27.4298 4.23581 23.7068C4.24012 12.8426 13.1509 4.00372 24.108 4.00372C29.4143 4.00595 34.401 6.05842 38.1517 9.78233C41.9023 13.5066 43.9661 18.4573 43.9648 23.7228C43.9599 34.587 35.049 43.427 24.1005 43.427H24.0926C20.5277 43.4251 17.0314 42.4752 13.9822 40.68L13.2566 40.253L5.73825 42.2089L7.74563 34.9379V34.9381Z" fill="url(#paint1_linear_252_965)"/>
        <path d="M18.1272 13.795C17.6798 12.8084 17.209 12.7885 16.7835 12.7712C16.4352 12.7563 16.0369 12.7574 15.639 12.7574C15.2408 12.7574 14.5937 12.906 14.0468 13.4986C13.4993 14.0917 11.9565 15.525 11.9565 18.4402C11.9565 21.3555 14.0965 24.1728 14.3948 24.5686C14.6935 24.9635 18.526 31.1373 24.5957 33.5124C29.6402 35.4861 30.6668 35.0936 31.7616 34.9946C32.8566 34.896 35.2949 33.5617 35.7923 32.178C36.2901 30.7946 36.2901 29.6087 36.1409 29.3609C35.9916 29.114 35.5934 28.9658 34.9962 28.6696C34.3988 28.3732 31.4629 26.9397 30.9156 26.742C30.3681 26.5444 29.97 26.4458 29.5718 27.0391C29.1735 27.6314 28.03 28.9658 27.6814 29.3609C27.3332 29.757 26.9847 29.8063 26.3877 29.51C25.7901 29.2127 23.8669 28.5877 21.5852 26.5693C19.81 24.9987 18.6115 23.0592 18.2631 22.4659C17.9147 21.8735 18.2258 21.5524 18.5252 21.2571C18.7935 20.9916 19.1226 20.5652 19.4215 20.2194C19.7192 19.8733 19.8186 19.6264 20.0177 19.2313C20.217 18.8357 20.1173 18.4897 19.9682 18.1933C19.8186 17.8969 18.6582 14.9665 18.1272 13.795Z" fill="white"/>
    </g>
    <defs>
        <linearGradient id="paint0_linear_252_965" x1="2317.7" y1="4619.34" x2="2317.7" y2="0.828278" gradientUnits="userSpaceOnUse">
            <stop stop-color="#1FAF38"/>
            <stop offset="1" stop-color="#60D669"/>
        </linearGradient>
        <linearGradient id="paint1_linear_252_965" x1="2400" y1="4784.13" x2="2400" y2="0" gradientUnits="userSpaceOnUse">
            <stop stop-color="#F9F9F9"/>
            <stop offset="1" stop-color="white"/>
        </linearGradient>
        <clipPath id="clip0_252_965">
            <rect width="48" height="48" fill="white"/>
        </clipPath>
    </defs>
</svg>
